<?xml version="1.0" encoding="utf-8"?>
<!-- Generator: Adobe Illustrator 27.1.1, SVG Export Plug-In . SVG Version: 6.00 Build 0)  -->
<svg version="1.1" id="Layer_1" xmlns="http://www.w3.org/2000/svg" xmlns:xlink="http://www.w3.org/1999/xlink" x="0px" y="0px"
	 viewBox="0 0 500 500" style="enable-background:new 0 0 500 500;" xml:space="preserve">
<style type="text/css">
	.st0{fill:#40BDF2;}
	.st1{fill:none;stroke:#000000;stroke-width:15;stroke-miterlimit:10;}
</style>
<g>
	<polygon points="223.8,445.8 66.4,445.8 66.4,54.2 223.8,54.2 223.8,174.4 208.8,174.4 208.8,69.2 81.4,69.2 81.4,430.8 
		208.8,430.8 208.8,390.1 223.8,390.1 	"/>
</g>
<g>
	<path class="st0" d="M344.8,260.1c-30.3,0-58.7-8.7-83.7-25.8c-31.4-21.5-65.9-28.2-102.3-19.7c-27.5,6.4-46,19.5-46.2,19.6
		l-8.8-12.2c0.8-0.6,20.7-14.8,51-21.9c28.1-6.6,70.8-8.3,114.7,21.8c31.5,21.6,67.7,28.2,107.6,19.7c30.2-6.5,51.3-19.7,51.5-19.8
		l8,12.7c-0.9,0.6-23.2,14.6-55.9,21.7C368.7,258.8,356.6,260.1,344.8,260.1z"/>
</g>
<g>
	<path class="st0" d="M344.8,329.5c-30.3,0-58.7-8.7-83.7-25.8c-31.4-21.5-65.9-28.2-102.3-19.7c-27.5,6.4-46,19.5-46.2,19.6
		l-8.8-12.2c0.8-0.6,20.7-14.8,51-21.9c28.1-6.6,70.8-8.2,114.7,21.8c31.5,21.6,67.7,28.2,107.6,19.7c30.2-6.5,51.3-19.7,51.5-19.8
		l8,12.7c-0.9,0.6-23.2,14.6-55.9,21.7C368.7,328.1,356.6,329.5,344.8,329.5z"/>
</g>
<g>
	<path class="st0" d="M344.8,398.8c-30.3,0-58.7-8.7-83.7-25.8c-31.6-21.6-66.2-28.2-102.8-19.6c-27.4,6.5-45.5,19.3-45.6,19.5
		l-8.8-12.2c0.8-0.6,20.7-14.8,51-21.9c28.1-6.6,70.8-8.3,114.7,21.8c31.5,21.6,67.7,28.2,107.6,19.7c30.2-6.5,51.3-19.7,51.5-19.8
		l8,12.7c-0.9,0.6-23.2,14.6-55.9,21.7C368.7,397.5,356.6,398.8,344.8,398.8z"/>
</g>
<g>
	<path class="st0" d="M325.2,209.1c-3,0-6-0.5-9-1.6c-8-2.9-14.1-9.5-16.3-17.7c-1.2-4.5-5.2-7.8-9.8-8.2c-8.5-0.8-16-5.6-20.3-13
		s-4.7-16.4-1.1-24.1c1.9-4.2,1.1-9.3-2.2-12.6c-6-6-8.7-14.6-7.2-23c1.5-8.4,6.9-15.5,14.6-19.1c4.2-2,6.8-6.4,6.4-11.1
		c-0.7-8.5,2.8-16.8,9.3-22.2c6.5-5.5,15.3-7.4,23.5-5.3c4.5,1.2,9.3-0.6,12-4.4c4.9-6.9,12.9-11.1,21.4-11.1
		c8.5,0,16.5,4.1,21.4,11.1v0c2.7,3.8,7.5,5.5,12,4.4c8.2-2.2,17-0.2,23.5,5.3c6.5,5.5,10,13.8,9.3,22.2c-0.4,4.6,2.2,9.1,6.4,11.1
		c7.7,3.6,13.1,10.8,14.6,19.1c1.5,8.4-1.2,17-7.2,23c-3.3,3.3-4.2,8.4-2.2,12.6c3.6,7.7,3.1,16.7-1.1,24.1s-11.8,12.2-20.3,13
		c-4.6,0.4-8.6,3.7-9.8,8.2c-2.2,8.2-8.3,14.8-16.3,17.7c-8,2.9-16.9,1.8-23.9-3.1c-3.8-2.6-9-2.6-12.8,0
		C335.7,207.5,330.4,209.1,325.2,209.1z M346.5,187.4c5.2,0,10.5,1.5,14.9,4.6c3,2.1,6.8,2.6,10.2,1.3c3.5-1.3,6-4,7-7.6
		c2.9-10.5,12.1-18.2,22.9-19.2c3.7-0.3,6.8-2.4,8.7-5.6c1.8-3.2,2-6.9,0.5-10.3c-4.5-9.9-2.5-21.7,5.2-29.4
		c2.6-2.6,3.7-6.2,3.1-9.8c-0.6-3.6-2.9-6.6-6.3-8.2c-9.8-4.6-15.8-15-14.9-25.9c0.3-3.7-1.1-7.1-4-9.5c-2.8-2.4-6.5-3.2-10.1-2.3
		c-10.5,2.8-21.8-1.3-28.1-10.2c-2.1-3-5.5-4.7-9.2-4.7s-7,1.7-9.2,4.7c-6.3,8.9-17.5,13-28.1,10.2c-3.6-0.9-7.2-0.1-10.1,2.3
		s-4.3,5.8-4,9.5c0.9,10.8-5.1,21.2-14.9,25.9c-3.3,1.6-5.6,4.6-6.3,8.2c-0.6,3.6,0.5,7.2,3.1,9.8c7.6,7.7,9.7,19.5,5.2,29.4
		c-1.5,3.3-1.4,7.1,0.5,10.3c1.8,3.2,5,5.2,8.7,5.6c10.8,1,20,8.7,22.9,19.2c1,3.6,3.5,6.3,7,7.6c3.5,1.3,7.2,0.8,10.2-1.3
		C336,189,341.3,187.4,346.5,187.4z"/>
</g>
<g>
	<g>
		<path d="M317.7,116c-1.6,1.4-3,2-4.2,2c-1.3-0.1-2.6-0.8-4-2.4c-1.5-1.6-2.2-3.1-2.1-4.5c0.1-1.4,1.1-2.9,2.9-4.4l12.2-10.8
			c1.5-1.4,2.9-2,4.2-1.9c1.3,0.1,2.6,1,4,2.5c1.5,1.5,2.1,3,2,4.3c-0.1,1.4-1.1,2.9-2.9,4.5L317.7,116z M328,151
			c-2.2,0-3.8-0.5-4.7-1.4c-0.9-0.9-1.3-2.5-1.3-4.8V99.9c0-2.3,0.4-3.9,1.3-4.8c0.9-0.9,2.5-1.3,4.8-1.3s3.9,0.5,4.8,1.4
			c0.9,0.9,1.3,2.6,1.3,4.9v44.8c0,2.3-0.4,3.9-1.3,4.8C331.9,150.6,330.3,151,328,151z"/>
	</g>
	<g>
		<path d="M364.6,151.8c-3.5,0-6.6-0.6-9.1-1.8c-2.5-1.2-4.6-2.8-6.2-4.9s-2.9-4.3-3.9-6.9c-1-2.5-1.6-5.2-2-7.9
			c-0.4-2.7-0.6-5.4-0.6-8c0-2.4,0.2-4.9,0.6-7.6c0.4-2.7,1-5.3,2-7.9c0.9-2.6,2.2-4.9,3.8-7c1.6-2.1,3.7-3.8,6.2-5
			c2.5-1.2,5.5-1.8,9-1.8c3.4,0,6.3,0.6,8.8,1.8c2.5,1.2,4.5,2.9,6.1,4.9c1.6,2,2.8,4.3,3.8,6.9c1,2.6,1.6,5.2,2,7.9
			c0.4,2.7,0.6,5.3,0.6,7.8c0,2.6-0.2,5.2-0.6,7.9c-0.4,2.7-1.1,5.4-2,7.9c-0.9,2.6-2.2,4.8-3.8,6.9c-1.6,2-3.6,3.6-6,4.8
			C370.9,151.2,368,151.8,364.6,151.8z M364.3,139.3c1.8,0,3.3-0.4,4.4-1.3c1.1-0.8,2-1.9,2.6-3.2c0.6-1.3,1.1-2.7,1.4-4.2
			c0.3-1.5,0.5-2.9,0.5-4.3c0.1-1.4,0.1-2.5,0.1-3.5v-0.4c0-3.6-0.3-6.7-1-9.2c-0.7-2.5-1.6-4.4-2.9-5.7c-1.3-1.3-3-2-5-2
			c-2.1,0-3.8,0.6-5.1,1.9c-1.3,1.3-2.3,3.2-3,5.7c-0.7,2.5-1,5.6-1,9.3c0,3.6,0.3,6.6,1,9.1c0.7,2.5,1.7,4.4,3,5.7
			C360.7,138.6,362.3,139.3,364.3,139.3z"/>
	</g>
</g>
</svg>
