<?xml version="1.0" encoding="utf-8"?>
<!-- Generator: Adobe Illustrator 27.1.1, SVG Export Plug-In . SVG Version: 6.00 Build 0)  -->
<svg version="1.1" id="Layer_1" xmlns="http://www.w3.org/2000/svg" xmlns:xlink="http://www.w3.org/1999/xlink" x="0px" y="0px"
	 viewBox="0 0 500 500" style="enable-background:new 0 0 500 500;" xml:space="preserve">
<style type="text/css">
	.st0{fill:#40BDF2;}
	.st1{fill:none;stroke:#000000;stroke-width:15;stroke-miterlimit:10;}
</style>
<g>
	<g>
		<path class="st0" d="M249.9,207.8H73.9v-15h176.1c18.7,0,33.8-15.2,33.8-33.8c0-18.7-15.2-33.8-33.8-33.8h-39.9v-15h39.9
			c26.9,0,48.8,21.9,48.8,48.8C298.8,185.9,276.9,207.8,249.9,207.8z"/>
	</g>
	<g>
		<path d="M317.4,389.9h-39.9v-15h39.9c18.7,0,33.8-15.2,33.8-33.8c0-18.7-15.2-33.8-33.8-33.8H73.9v-15h243.5
			c26.9,0,48.8,21.9,48.8,48.8C366.2,368,344.3,389.9,317.4,389.9z"/>
	</g>
	<g>
		<path d="M384.8,255.9H73.9v-15h310.9c18.7,0,33.8-15.2,33.8-33.8c0-18.7-15.2-33.8-33.8-33.8h-39.9v-15h39.9
			c26.9,0,48.8,21.9,48.8,48.8C433.6,234,411.7,255.9,384.8,255.9z"/>
	</g>
</g>
</svg>
