<?xml version="1.0" encoding="utf-8"?>
<!-- Generator: Adobe Illustrator 27.1.1, SVG Export Plug-In . SVG Version: 6.00 Build 0)  -->
<svg version="1.1" id="Layer_1" xmlns="http://www.w3.org/2000/svg" xmlns:xlink="http://www.w3.org/1999/xlink" x="0px" y="0px"
	 viewBox="0 0 500 500" style="enable-background:new 0 0 500 500;" xml:space="preserve">
<style type="text/css">
	.st0{fill:#40BDF2;}
	.st1{fill:none;stroke:#000000;stroke-width:15;stroke-miterlimit:10;}
</style>
<g>
	<g>
		<path d="M138.4,287l-15-1.1c1.3-18.4,13.7-35.2,30.9-41.9c0.3-4.9,1.1-12.1,4.4-18.8c3.6-7.4,9.7-12.7,16.8-14.6
			c2.7-0.7,5.2-0.9,7.5-1.1c1.6-0.1,3.2-0.2,4.4-0.5c0.2-0.2,0.4-0.4,0.5-0.6c1.7-2.2,4.6-5.9,10.1-7.5c5.5-1.6,12-0.8,20.6,2.5
			l-5.3,14c-7.1-2.7-10.1-2.4-11.1-2.1c-0.8,0.2-1.2,0.7-2.4,2.3c-1.3,1.7-3.2,4.1-6.4,5.3c-3.3,1.2-6.5,1.5-9.3,1.7
			c-1.7,0.1-3.4,0.2-4.6,0.6c-2.8,0.8-5.6,3.3-7.3,6.8c-1.6,3.3-2.5,7.4-2.9,13.2c-0.1,2.2-0.4,6.2-3.4,9.3c-1.9,2-4.2,2.8-5.5,3.3
			l-0.2,0.1C148.2,262.3,139.3,274.3,138.4,287z M187,209.4L187,209.4L187,209.4z"/>
	</g>
	<g>
		<path d="M67.6,288c-2.2-24.5,14.4-51.6,38.5-63.1c0.3-0.2,0.7-0.3,1-0.5c1.4-0.6,2.7-1.2,3.3-1.8c1.2-1.1,2-3.9,2.7-6.6l0-0.1
			c3.3-12.2,8.2-25.8,19.7-34.4c7.1-5.3,15.3-7.6,23.1-9.8c6.7-1.9,13.1-3.6,17.9-7.2c5.4-3.9,9.1-10.1,13.1-16.8
			c1.1-1.8,2.2-3.7,3.4-5.6c8.5-13.2,18.2-20.5,29-21.6c18.4-1.9,32.1,14.9,38.7,22.9c0.8,1,3.3,4,4.4,4.1c0.6,0.1,2-0.3,3.1-0.7
			c1.6-0.5,3.3-1,5.4-1.2c8.3-0.9,15.3,3.7,20.4,7.8c13.7,10.9,25.1,24.2,33.9,39.4c0.7,1.2,1.8,3.1,2.4,3.5
			c0.3,0.1,1.1,0.1,1.7,0.2c0.3,0,0.6,0,1,0.1c11.9,1.1,23.6,8.1,32,19.3c7.5,10,11.4,21.6,14.3,31.6c3.4,12,6,24.4,7.7,36.9
			l-14.9,2c-1.6-11.7-4-23.4-7.3-34.7c-2.5-8.7-5.9-18.7-11.9-26.7c-5.8-7.8-13.6-12.6-21.3-13.3c-0.3,0-0.5,0-0.8-0.1
			c-1.6-0.1-3.9-0.3-6.2-1.2c-5.2-2.1-7.8-6.6-9.7-9.8c-7.8-13.4-18.3-25.6-30.4-35.2c-2.9-2.3-6.6-4.9-9.5-4.6
			c-0.7,0.1-1.7,0.4-2.8,0.7c-2.4,0.7-5.5,1.6-9,1.2c-7.2-0.8-11.8-6.5-14.3-9.5c-7.9-9.6-16.5-18.4-25.6-17.5
			c-6,0.6-12,5.6-17.9,14.7c-1.1,1.7-2.1,3.4-3.2,5.2c-4.6,7.6-9.3,15.4-17.1,21.1c-7.1,5.1-15,7.4-22.8,9.5
			c-6.8,1.9-13.3,3.7-18.1,7.3c-7.8,5.9-11.6,16.6-14.2,26.4l0,0.1c-1.2,4.3-2.6,9.7-7,13.7c-2.3,2.2-5,3.4-7.1,4.4l-0.9,0.4
			c-18.1,8.6-31.6,30.2-30,48.2L67.6,288z"/>
	</g>
	<g>
		<path class="st0" d="M263.9,379.4c-7,0-14-1.4-20.7-4.1L67.5,301.9v-22h332.3c18.1,0,32.8,14.7,32.8,32.8c0,10-4.5,19.3-12.2,25.6
			c-7.8,6.3-17.8,8.6-27.6,6.5l-56-12.1l-37,33.1C289.9,374.7,277,379.4,263.9,379.4z M89.6,294.9L249,361.5c13.8,5.8,29.9,3,41-6.9
			l42.7-38.2l63.4,13.8c5.3,1.1,10.8-0.1,15-3.5c4.2-3.4,6.6-8.5,6.6-13.9c0-9.8-8-17.8-17.8-17.8H89.6z"/>
	</g>
</g>
</svg>
