<?xml version="1.0" encoding="utf-8"?>
<!-- Generator: Adobe Illustrator 27.1.1, SVG Export Plug-In . SVG Version: 6.00 Build 0)  -->
<svg version="1.1" id="Layer_1" xmlns="http://www.w3.org/2000/svg" xmlns:xlink="http://www.w3.org/1999/xlink" x="0px" y="0px"
	 viewBox="0 0 500 500" style="enable-background:new 0 0 500 500;" xml:space="preserve">
<style type="text/css">
	.st0{fill:#40BDF2;}
	.st1{fill:none;stroke:#000000;stroke-width:15;stroke-miterlimit:10;}
</style>
<g>
	<g>
		<path class="st0" d="M250,460.3c-85.3,0-154.6-69.4-154.6-154.6c0-51.7,25.2-112,75-179c36.8-49.5,72.9-83.5,74.5-85l5.2-4.9
			l5.1,5c0.4,0.4,37.7,36.6,74.4,86.7c49.8,67.8,75,127.5,75,177.2C404.6,391,335.3,460.3,250,460.3z M249.9,57.7
			c-11.4,11.3-39.7,40.4-67.6,78.1c-32.8,44.2-71.9,109.6-71.9,169.9c0,77,62.6,139.6,139.6,139.6s139.6-62.6,139.6-139.6
			c0-57.9-39.1-123.4-72-168.2C289.6,99.3,261.3,69.3,249.9,57.7z"/>
	</g>
	<g>
		<path class="st0" d="M250,423.2v-15c56.5,0,102.5-46,102.5-102.5h15C367.5,370.5,314.8,423.2,250,423.2z"/>
	</g>
	<g>
		<rect x="148.4" y="274.7" transform="matrix(0.7071 -0.7071 0.7071 0.7071 -126.3362 259.437)" width="203.2" height="15"/>
	</g>
	<g>
		<path d="M289.1,352.1c-17,0-30.8-13.8-30.8-30.8s13.8-30.8,30.8-30.8s30.8,13.8,30.8,30.8S306.1,352.1,289.1,352.1z M289.1,305.5
			c-8.7,0-15.8,7.1-15.8,15.8s7.1,15.8,15.8,15.8s15.8-7.1,15.8-15.8S297.8,305.5,289.1,305.5z"/>
	</g>
	<g>
		<path d="M210.8,273.9c-17,0-30.8-13.8-30.8-30.8s13.8-30.8,30.8-30.8s30.8,13.8,30.8,30.8S227.8,273.9,210.8,273.9z M210.8,227.2
			c-8.7,0-15.8,7.1-15.8,15.8c0,8.7,7.1,15.8,15.8,15.8s15.8-7.1,15.8-15.8C226.6,234.3,219.5,227.2,210.8,227.2z"/>
	</g>
</g>
</svg>
