<?xml version="1.0" encoding="utf-8"?>
<!-- Generator: Adobe Illustrator 27.1.1, SVG Export Plug-In . SVG Version: 6.00 Build 0)  -->
<svg version="1.1" id="Layer_1" xmlns="http://www.w3.org/2000/svg" xmlns:xlink="http://www.w3.org/1999/xlink" x="0px" y="0px"
	 viewBox="0 0 500 500" style="enable-background:new 0 0 500 500;" xml:space="preserve">
<style type="text/css">
	.st0{fill:#40BDF2;}
	.st1{fill:none;stroke:#000000;stroke-width:15;stroke-miterlimit:10;}
</style>
<g>
	<g>
		<g>
			<g>
				<path class="st0" d="M121.3,326.8c-37,0-67.1-30.1-67.1-67.1c0-51.6,59.5-107.9,62-110.3l5.2-4.9l5.1,5
					c0.6,0.6,15.5,15.1,30.6,35.7c20.7,28.3,31.3,53.3,31.3,74.5C188.4,296.7,158.3,326.8,121.3,326.8z M121.2,165.5
					c-14.1,14.6-52.1,57.2-52.1,94.1c0,28.7,23.4,52.1,52.1,52.1s52.1-23.4,52.1-52.1c0-17.6-9.8-40.2-28.2-65.4
					C136,181.7,126.7,171.4,121.2,165.5z"/>
			</g>
			<g>
				<path class="st0" d="M121.3,302.8v-15c15.5,0,28.2-12.6,28.2-28.2h15C164.4,283.5,145.1,302.8,121.3,302.8z"/>
			</g>
		</g>
		<g>
			<g>
				<path class="st0" d="M378.7,326.8c-37,0-67.1-30.1-67.1-67.1c0-51.6,59.5-107.9,62-110.3l5.2-4.9l5.1,5
					c0.6,0.6,15.5,15.1,30.6,35.7c20.7,28.3,31.3,53.3,31.3,74.5C445.9,296.7,415.8,326.8,378.7,326.8z M378.7,165.5
					c-14.1,14.6-52.1,57.2-52.1,94.1c0,28.7,23.4,52.1,52.1,52.1s52.1-23.4,52.1-52.1c0-17.6-9.8-40.2-28.2-65.4
					C393.5,181.7,384.2,171.4,378.7,165.5z"/>
			</g>
			<g>
				<path class="st0" d="M378.7,302.8v-15c15.5,0,28.2-12.6,28.2-28.2h15C421.9,283.5,402.6,302.8,378.7,302.8z"/>
			</g>
		</g>
	</g>
	<g>
		<g>
			<path class="st0" d="M250,233.6c-37,0-67.1-30.1-67.1-67.1c0-51.6,59.5-107.9,62-110.3l5.2-4.9l5.1,5
				c0.6,0.6,15.5,15.1,30.6,35.7c20.7,28.3,31.3,53.3,31.3,74.5C317.1,203.5,287,233.6,250,233.6z M249.9,72.4
				c-14.1,14.6-52.1,57.2-52.1,94.1c0,28.7,23.4,52.1,52.1,52.1s52.1-23.4,52.1-52.1c0-17.6-9.8-40.2-28.2-65.4
				C264.7,88.5,255.5,78.2,249.9,72.4z"/>
		</g>
		<g>
			<path class="st0" d="M250,209.7v-15c15.5,0,28.2-12.6,28.2-28.2h15C293.2,190.3,273.8,209.7,250,209.7z"/>
		</g>
	</g>
	<g>
		<path d="M372.3,367.8c-16.5,0-24.8-2.7-32.9-5.4c-7.3-2.4-14.2-4.6-28.3-4.6c-14.1,0-21,2.2-28.3,4.6c-8.1,2.6-16.4,5.4-32.9,5.4
			c-16.5,0-24.8-2.7-32.9-5.4c-7.3-2.4-14.2-4.6-28.3-4.6c-14.1,0-21,2.2-28.3,4.6c-8.1,2.6-16.4,5.4-32.9,5.4
			c-16.5,0-24.8-2.7-32.9-5.4c-7.3-2.4-14.2-4.6-28.3-4.6v-15c16.5,0,24.8,2.7,32.9,5.4c7.3,2.4,14.2,4.6,28.3,4.6
			c14.1,0,21-2.2,28.3-4.6c8.1-2.6,16.4-5.4,32.9-5.4c16.5,0,24.8,2.7,32.9,5.4c7.3,2.4,14.2,4.6,28.3,4.6c14.1,0,21-2.2,28.3-4.6
			c8.1-2.6,16.4-5.4,32.9-5.4c16.5,0,24.8,2.7,32.9,5.4c7.3,2.4,14.2,4.6,28.3,4.6s21-2.2,28.3-4.6c8.1-2.6,16.4-5.4,32.9-5.4v15
			c-14.1,0-21,2.2-28.3,4.6C397.2,365,388.8,367.8,372.3,367.8z"/>
	</g>
	<g>
		<path d="M372.3,410.3c-16.5,0-24.8-2.7-32.9-5.4c-7.3-2.4-14.2-4.6-28.3-4.6c-14.1,0-21,2.2-28.3,4.6c-8.1,2.6-16.4,5.4-32.9,5.4
			c-16.5,0-24.8-2.7-32.9-5.4c-7.3-2.4-14.2-4.6-28.3-4.6c-14.1,0-21,2.2-28.3,4.6c-8.1,2.6-16.4,5.4-32.9,5.4
			c-16.5,0-24.8-2.7-32.9-5.4c-7.3-2.4-14.2-4.6-28.3-4.6v-15c16.5,0,24.8,2.7,32.9,5.4c7.3,2.4,14.2,4.6,28.3,4.6
			c14.1,0,21-2.2,28.3-4.6c8.1-2.6,16.4-5.4,32.9-5.4c16.5,0,24.8,2.7,32.9,5.4c7.3,2.4,14.2,4.6,28.3,4.6c14.1,0,21-2.2,28.3-4.6
			c8.1-2.6,16.4-5.4,32.9-5.4c16.5,0,24.8,2.7,32.9,5.4c7.3,2.4,14.2,4.6,28.3,4.6s21-2.2,28.3-4.6c8.1-2.6,16.4-5.4,32.9-5.4v15
			c-14.1,0-21,2.2-28.3,4.6C397.2,407.5,388.8,410.3,372.3,410.3z"/>
	</g>
	<g>
		<path d="M372.3,445.8c-16.5,0-24.8-2.7-32.9-5.4c-7.3-2.4-14.2-4.6-28.3-4.6c-14.1,0-21,2.2-28.3,4.6c-8.1,2.6-16.4,5.4-32.9,5.4
			c-16.5,0-24.8-2.7-32.9-5.4c-7.3-2.4-14.2-4.6-28.3-4.6c-14.1,0-21,2.2-28.3,4.6c-8.1,2.6-16.4,5.4-32.9,5.4
			c-16.5,0-24.8-2.7-32.9-5.4c-7.3-2.4-14.2-4.6-28.3-4.6v-15c16.5,0,24.8,2.7,32.9,5.4c7.3,2.4,14.2,4.6,28.3,4.6
			c14.1,0,21-2.2,28.3-4.6c8.1-2.6,16.4-5.4,32.9-5.4c16.5,0,24.8,2.7,32.9,5.4c7.3,2.4,14.2,4.6,28.3,4.6c14.1,0,21-2.2,28.3-4.6
			c8.1-2.6,16.4-5.4,32.9-5.4c16.5,0,24.8,2.7,32.9,5.4c7.3,2.4,14.2,4.6,28.3,4.6s21-2.2,28.3-4.6c8.1-2.6,16.4-5.4,32.9-5.4v15
			c-14.1,0-21,2.2-28.3,4.6C397.2,443.1,388.8,445.8,372.3,445.8z"/>
	</g>
</g>
</svg>
