<?xml version="1.0" encoding="utf-8"?>
<!-- Generator: Adobe Illustrator 27.1.1, SVG Export Plug-In . SVG Version: 6.00 Build 0)  -->
<svg version="1.1" id="Layer_1" xmlns="http://www.w3.org/2000/svg" xmlns:xlink="http://www.w3.org/1999/xlink" x="0px" y="0px"
	 viewBox="0 0 500 500" style="enable-background:new 0 0 500 500;" xml:space="preserve">
<style type="text/css">
	.st0{fill:#40BDF2;}
	.st1{fill:none;stroke:#000000;stroke-width:15;stroke-miterlimit:10;}
</style>
<g>
	<g>
		<path class="st0" d="M346.8,324.5c-17.9,0-34.8-6.1-48.4-17.4c-13.6,11.3-30.5,17.4-48.4,17.4c-17.9,0-34.8-6.1-48.4-17.4
			c-13.6,11.3-30.5,17.4-48.4,17.4c-41.9,0-76.1-34.1-76.1-76.1c0-24,11.2-46.3,30.1-60.6c-0.4-2.6-0.6-5.3-0.6-7.9
			c0-29.7,23.2-54.1,52.5-55.9c14.3-37.5,50.1-62.4,90.8-62.4s76.4,24.9,90.8,62.4c29.3,1.8,52.5,26.2,52.5,55.9
			c0,2.6-0.2,5.3-0.6,7.9c19,14.4,30.1,36.7,30.1,60.6C422.9,290.4,388.7,324.5,346.8,324.5z M298.4,286.4l5.3,5.3
			c11.5,11.5,26.8,17.8,43.1,17.8c33.7,0,61.1-27.4,61.1-61.1c0-20.6-10.3-39.7-27.5-51l-4.4-2.9l1.2-5.1c0.7-3.1,1.1-6.3,1.1-9.5
			c0-22.6-18.4-41-41-41c-0.5,0-1,0-1.5,0l-5.7,0.2l-1.8-5.4c-10.9-34.2-42.4-57.1-78.3-57.1s-67.4,23-78.3,57.1l-1.7,5.4l-5.7-0.2
			c-0.6,0-1.1,0-1.6,0c-22.6,0-41,18.4-41,41c0,3.2,0.4,6.4,1.1,9.5l1.2,5.1l-4.4,2.9c-17.2,11.4-27.5,30.4-27.5,51
			c0,33.7,27.4,61.1,61.1,61.1c16.3,0,31.6-6.3,43.1-17.8l5.3-5.3l5.3,5.3c11.5,11.5,26.8,17.8,43.1,17.8c16.3,0,31.6-6.3,43.1-17.8
			L298.4,286.4z"/>
	</g>
	<g>
		<path d="M197.8,438.4h-37.6v-15h37.6c23.2,0,42.1-18.9,42.1-42.1V273.5c0-20.5-9.1-39.7-24.9-52.7l-0.1-0.1l-56.8-48.7l9.8-11.4
			l56.7,48.6c19.3,15.9,30.3,39.2,30.3,64.2v107.8C254.9,412.8,229.3,438.4,197.8,438.4z"/>
	</g>
	<g>
		<path d="M335.2,438.4h-30.1c-35.9,0-65.2-29.2-65.2-65.2v-24.1h15v24.1c0,27.7,22.5,50.2,50.2,50.2h30.1V438.4z"/>
	</g>
	<g>
		<path d="M239.9,311v-91.2c0-21.7,8.5-42.2,23.8-57.5l30.8-30.8l10.6,10.6l-30.8,30.8c-12.5,12.5-19.4,29.2-19.4,46.9v55l36.8-36.8
			c6.8-6.8,15.8-10.5,25.3-10.5c9.6,0,18.6,3.7,25.3,10.5l16.6,16.6l-10.6,10.6l-16.6-16.6c-3.9-3.9-9.2-6.1-14.7-6.1
			c-5.6,0-10.8,2.2-14.7,6.1L239.9,311z"/>
	</g>
	<g>
		<rect x="287.7" y="213.5" transform="matrix(0.7071 -0.7071 0.7071 0.7071 -62.7185 290.5352)" width="63.3" height="15"/>
	</g>
	<g>
		<rect x="203.7" y="148.3" width="15" height="59.7"/>
	</g>
</g>
</svg>
