<?xml version="1.0" encoding="utf-8"?>
<!-- Generator: Adobe Illustrator 27.1.1, SVG Export Plug-In . SVG Version: 6.00 Build 0)  -->
<svg version="1.1" id="Layer_1" xmlns="http://www.w3.org/2000/svg" xmlns:xlink="http://www.w3.org/1999/xlink" x="0px" y="0px"
	 viewBox="0 0 500 500" style="enable-background:new 0 0 500 500;" xml:space="preserve">
<style type="text/css">
	.st0{fill:#40BDF2;}
	.st1{fill:none;stroke:#000000;stroke-width:15;stroke-miterlimit:10;}
</style>
<g>
	<g>
		<path class="st0" d="M433.5,321.1c-17.2,0-26.3-5-34.2-9.4c-7.3-4-13.6-7.5-27-7.5c-13.4,0-19.7,3.5-27,7.5
			c-8,4.4-17,9.4-34.2,9.4c-17.2,0-26.3-5-34.2-9.4c-7.3-4-13.6-7.5-27-7.5s-19.7,3.5-27,7.5c-8,4.4-17,9.4-34.2,9.4
			s-26.3-5-34.2-9.4c-7.3-4-13.6-7.5-27-7.5s-19.7,3.5-27,7.5c-8,4.4-17,9.4-34.2,9.4v-15c13.4,0,19.7-3.5,27-7.5
			c8-4.4,17-9.4,34.2-9.4s26.3,5,34.2,9.4c7.3,4,13.6,7.5,27,7.5s19.7-3.5,27-7.5c8-4.4,17-9.4,34.2-9.4s26.3,5,34.2,9.4
			c7.3,4,13.6,7.5,27,7.5c13.4,0,19.7-3.5,27-7.5c8-4.4,17-9.4,34.2-9.4c17.2,0,26.3,5,34.2,9.4c7.3,4,13.6,7.5,27,7.5V321.1z"/>
	</g>
	<g>
		<path class="st0" d="M311.2,361.8c-17.2,0-26.3-5-34.2-9.4c-7.3-4-13.6-7.5-26.9-7.5c-13.4,0-19.7,3.5-27,7.5
			c-8,4.4-17,9.4-34.2,9.4s-26.3-5-34.2-9.4c-7.3-4-13.6-7.5-27-7.5c-13.4,0-19.7,3.5-27,7.5c-4.4,2.4-9.4,5.2-16,7.1l-4.1-14.4
			c4.9-1.4,8.8-3.5,12.9-5.8c8-4.4,17-9.4,34.2-9.4s26.3,5,34.2,9.4c7.3,4,13.6,7.5,27,7.5s19.7-3.5,27-7.5c8-4.4,17-9.4,34.2-9.4
			c17.2,0,26.2,5,34.2,9.4c7.3,4,13.6,7.5,27,7.5s19.7-3.5,27-7.5c8-4.4,17-9.4,34.2-9.4c17.2,0,26.3,5,34.2,9.4
			c4.1,2.3,7.9,4.4,12.9,5.8l-4.1,14.4c-6.6-1.9-11.6-4.6-16-7.1c-7.3-4-13.6-7.5-27-7.5c-13.4,0-19.7,3.5-26.9,7.5
			C337.4,356.8,328.4,361.8,311.2,361.8z"/>
	</g>
	<g>
		<path class="st0" d="M311.2,402.5c-17.2,0-26.3-5-34.2-9.4c-7.3-4-13.6-7.5-26.9-7.5c-13.4,0-19.7,3.5-27,7.5
			c-8,4.4-17,9.4-34.2,9.4s-26.3-5-34.2-9.4c-7.3-4-13.6-7.5-27-7.5c-9.8,0-15.5,1.9-19.4,3.6l-6-13.7c7.7-3.3,15.7-4.9,25.4-4.9
			c17.2,0,26.3,5,34.2,9.4c7.3,4,13.6,7.5,27,7.5s19.7-3.5,27-7.5c8-4.4,17-9.4,34.2-9.4c17.2,0,26.2,5,34.2,9.4
			c7.3,4,13.6,7.5,27,7.5s19.7-3.5,27-7.5c8-4.4,17-9.4,34.2-9.4c9.7,0,17.7,1.6,25.4,4.9l-6,13.7c-3.9-1.7-9.6-3.6-19.4-3.6
			c-13.4,0-19.7,3.5-26.9,7.5C337.4,397.5,328.4,402.5,311.2,402.5z"/>
	</g>
	<g>
		<path d="M250,453.6c-112.3,0-203.6-91.4-203.6-203.6S137.7,46.4,250,46.4S453.6,137.7,453.6,250S362.3,453.6,250,453.6z M250,61.4
			C146,61.4,61.4,146,61.4,250S146,438.6,250,438.6S438.6,354,438.6,250S354,61.4,250,61.4z"/>
	</g>
	<g>
		<path class="st0" d="M250,257.5c-35.5,0-64.4-28.9-64.4-64.4c0-49.4,56.8-103.2,59.3-105.4l5.2-4.9l5.1,5
			c2.4,2.3,59.2,57.8,59.2,105.4C314.4,228.6,285.5,257.5,250,257.5z M249.9,103.8c-13.6,14.1-49.3,54.4-49.3,89.3
			c0,27.2,22.2,49.4,49.4,49.4s49.4-22.2,49.4-49.4c0-16.7-9.3-38.2-26.9-62.2C263.9,119.2,255.2,109.4,249.9,103.8z"/>
	</g>
	<g>
		<path class="st0" d="M250,229.9v-15c12,0,21.8-9.8,21.8-21.8h15C286.8,213.4,270.3,229.9,250,229.9z"/>
	</g>
</g>
</svg>
