<?xml version="1.0" encoding="utf-8"?>
<!-- Generator: Adobe Illustrator 27.1.1, SVG Export Plug-In . SVG Version: 6.00 Build 0)  -->
<svg version="1.1" id="Layer_1" xmlns="http://www.w3.org/2000/svg" xmlns:xlink="http://www.w3.org/1999/xlink" x="0px" y="0px"
	 viewBox="0 0 500 500" style="enable-background:new 0 0 500 500;" xml:space="preserve">
<style type="text/css">
	.st0{fill:#40BDF2;}
	.st1{fill:none;stroke:#000000;stroke-width:15;stroke-miterlimit:10;}
</style>
<g>
	<g>
		<path d="M250,466.7c-45.4,0-82.3-36.9-82.3-82.3c0-27.2,13.1-52.2,35.4-67.6V81.2c0-25.9,21.1-46.9,46.9-46.9s46.9,21.1,46.9,46.9
			v235.5c22.2,15.4,35.4,40.4,35.4,67.6C332.3,429.8,295.4,466.7,250,466.7z M250,49.3c-17.6,0-31.9,14.3-31.9,31.9v243.7l-3.5,2.2
			c-19.9,12.4-31.8,33.8-31.8,57.2c0,37.1,30.2,67.3,67.3,67.3s67.3-30.2,67.3-67.3c0-23.4-11.9-44.8-31.8-57.2l-3.5-2.2V81.2
			C281.9,63.6,267.6,49.3,250,49.3z"/>
	</g>
	<g>
		<circle class="st0" cx="250" cy="384.4" r="37.5"/>
		<path class="st0" d="M250,429.3c-24.8,0-45-20.2-45-45s20.2-45,45-45s45,20.2,45,45S274.8,429.3,250,429.3z M250,354.4
			c-16.5,0-30,13.5-30,30s13.5,30,30,30s30-13.5,30-30S266.5,354.4,250,354.4z"/>
	</g>
	<g>
		<rect x="242.5" y="177.5" class="st0" width="15" height="169.3"/>
	</g>
	<g>
		<rect x="309.4" y="73.7" class="st0" width="72" height="15"/>
	</g>
	<g>
		<rect x="309.4" y="102.5" class="st0" width="36" height="15"/>
	</g>
	<g>
		<rect x="309.4" y="131.2" class="st0" width="36" height="15"/>
	</g>
	<g>
		<rect x="309.4" y="160" class="st0" width="72" height="15"/>
	</g>
	<g>
		<rect x="309.4" y="188.7" class="st0" width="36" height="15"/>
	</g>
	<g>
		<rect x="309.4" y="217.5" class="st0" width="36" height="15"/>
	</g>
	<g>
		<rect x="309.4" y="246.2" class="st0" width="72" height="15"/>
	</g>
	<g>
		<rect x="309.4" y="274.9" class="st0" width="36" height="15"/>
	</g>
</g>
</svg>
