<?xml version="1.0" encoding="utf-8"?>
<!-- Generator: Adobe Illustrator 27.1.1, SVG Export Plug-In . SVG Version: 6.00 Build 0)  -->
<svg version="1.1" id="Layer_1" xmlns="http://www.w3.org/2000/svg" xmlns:xlink="http://www.w3.org/1999/xlink" x="0px" y="0px"
	 viewBox="0 0 500 500" style="enable-background:new 0 0 500 500;" xml:space="preserve">
<style type="text/css">
	.st0{fill:#40BDF2;}
	.st1{fill:none;stroke:#000000;stroke-width:15;stroke-miterlimit:10;}
</style>
<g>
	<g>
		<path class="st0" d="M289.8,361.1c-3.1,0-6.2-0.1-9.3-0.4l-6.2-0.6l-0.6-6.2c-2.7-30.3,8-60,29.5-81.5l0,0c0,0,0,0,0,0
			c21.5-21.5,51.2-32.2,81.5-29.5l6.2,0.6l0.6,6.2c2.7,30.3-8,60-29.5,81.5C342.7,350.5,316.8,361.1,289.8,361.1z M288.2,346.1
			c23.6,0.4,46.3-8.7,63.1-25.5c16.8-16.8,25.9-39.5,25.5-63.1c-23.6-0.4-46.3,8.7-63.1,25.5l0,0
			C296.9,299.8,287.8,322.5,288.2,346.1z"/>
	</g>
	<g>
		<rect x="242.5" y="252.3" width="15" height="200.5"/>
	</g>
	<g>
		<g>
			<path class="st0" d="M274.9,257.5h-42.2c-42.4,0-76.8-34.5-76.8-76.8v-108h7.5c61.5,0,111.5,50,111.5,111.5V257.5z M170.8,88
				v92.7c0,34.1,27.7,61.8,61.8,61.8h27.2v-58.3C259.9,133.5,220.6,91.8,170.8,88z"/>
		</g>
		<g>
			<path class="st0" d="M267.3,257.5h-42.2v-73.3c0-61.5,50-111.5,111.5-111.5h7.5v108C344.2,223,309.7,257.5,267.3,257.5z
				 M240.1,242.5h27.2c34.1,0,61.8-27.7,61.8-61.8V88c-49.7,3.8-89,45.5-89,96.2V242.5z"/>
		</g>
	</g>
	<g>
		<path class="st0" d="M282.2,94c-6.9-23.7-25.5-35.1-32.4-38.6c-26.2,11.5-31.6,36.9-31.8,38l-14.7-2.9c0.3-1.5,7.5-36.4,44.1-50.3
			l2.7-1l2.7,1.1c1.4,0.5,33.4,13.5,43.8,49.6L282.2,94z"/>
	</g>
	<g>
		<rect x="229" y="326.8" transform="matrix(0.7071 -0.7071 0.7071 0.7071 -148.2925 310.5051)" width="143.4" height="15"/>
	</g>
</g>
</svg>
