<?xml version="1.0" encoding="utf-8"?>
<!-- Generator: Adobe Illustrator 27.1.1, SVG Export Plug-In . SVG Version: 6.00 Build 0)  -->
<svg version="1.1" id="Layer_1" xmlns="http://www.w3.org/2000/svg" xmlns:xlink="http://www.w3.org/1999/xlink" x="0px" y="0px"
	 viewBox="0 0 500 500" style="enable-background:new 0 0 500 500;" xml:space="preserve">
<style type="text/css">
	.st0{fill:#40BDF2;}
	.st1{fill:none;stroke:#000000;stroke-width:15;stroke-miterlimit:10;}
</style>
<g>
	<g>
		<path class="st0" d="M411.1,294.9h-93v-15h93c16.6,0,30.1-13.5,30.1-30.1s-13.5-30.1-30.1-30.1h-7.5v-7.5
			c0-30.3-20.4-57.1-49.5-65.2l-5.9-1.6l0.4-6.1c0.1-0.9,0.1-1.6,0.1-2.2c0-16.6-13.5-30.1-30.1-30.1c-7.2,0-14.2,2.6-19.7,7.3
			l-5.4,4.6l-4.9-5.1c-18.6-19.1-43.5-29.7-70.2-29.7c-46.5,0-86.8,33.1-95.9,78.6l-1.2,6.1l-6.3-0.1c-0.2,0-0.4,0-0.6,0
			c-0.1,0-0.2,0-0.3,0c-30.6,0-55.5,24.9-55.5,55.5s24.9,55.5,55.5,55.5h81.1v15h-81.1c-38.9,0-70.5-31.6-70.5-70.5
			c0-37.2,28.9-67.7,65.5-70.3c12.6-49.5,57.7-84.8,109.3-84.8c28.5,0,55.4,10.5,76.2,29.6c7.1-4.5,15.4-6.9,23.9-6.9
			c23.9,0,43.6,18.8,45,42.3c30.5,10.8,52,38.8,54.7,70.9c21.4,3.5,37.9,22.1,37.9,44.5C456.2,274.7,436,294.9,411.1,294.9z"/>
	</g>
	<g>
		<rect x="143.4" y="285" transform="matrix(0.3972 -0.9177 0.9177 0.3972 -154.0767 350.3753)" width="92.6" height="15"/>
	</g>
	<g>
		<rect x="266.1" y="285" transform="matrix(0.3972 -0.9177 0.9177 0.3972 -80.0847 463.0255)" width="92.6" height="15"/>
	</g>
	<g>
		<rect x="296.2" y="352.7" transform="matrix(0.3972 -0.9177 0.9177 0.3972 -124.1068 531.5234)" width="92.6" height="15"/>
	</g>
	<g>
		
			<rect x="115.1" y="386.7" transform="matrix(0.3972 -0.9177 0.9177 0.3972 -275.5799 368.9328)" class="st0" width="55.9" height="15"/>
	</g>
	<g>
		
			<rect x="234.1" y="384.2" transform="matrix(0.3972 -0.9177 0.9177 0.3972 -197.7111 482.4439)" class="st0" width="68.6" height="15"/>
	</g>
	<g>
		
			<rect x="218.1" y="301.2" transform="matrix(0.3972 -0.9177 0.9177 0.3972 -134.5534 412.506)" class="st0" width="57.3" height="15"/>
	</g>
	<g>
		<rect x="184.5" y="384.2" transform="matrix(0.3972 -0.9177 0.9177 0.3972 -230.9914 431.7757)" width="57.3" height="15"/>
	</g>
</g>
</svg>
